<svg version="1.1" id="Layer_1" xmlns="http://www.w3.org/2000/svg" xmlns:xlink="http://www.w3.org/1999/xlink" x="0px" y="0px"
	 width="100%" viewBox="0 0 800 450" enable-background="new 0 0 800 450" xml:space="preserve">
<path fill="rgba(0,0,0,0)" opacity="1.000000" stroke="none" 
	d="
M522.000000,451.000000 
	C348.000000,451.000000 174.500000,451.000000 1.000000,451.000000 
	C1.000000,301.000000 1.000000,151.000000 1.000000,1.000000 
	C267.666656,1.000000 534.333313,1.000000 801.000000,1.000000 
	C801.000000,151.000000 801.000000,301.000000 801.000000,451.000000 
	C708.166687,451.000000 615.333313,451.000000 522.000000,451.000000 
M502.500000,56.997803 
	C435.174042,56.997803 367.848083,56.997787 300.522125,56.997826 
	C290.023285,56.997829 279.523285,56.899925 269.025879,57.022923 
	C255.748245,57.178486 248.678879,63.150143 246.297653,76.112762 
	C245.879593,78.388550 245.811752,80.753616 245.811111,83.077522 
	C245.787903,167.068237 245.895859,251.059219 245.682999,335.049408 
	C245.650070,348.039764 250.822693,355.869293 263.031982,360.842224 
	C305.790009,378.257904 348.285492,396.319580 390.837769,414.237762 
	C397.688385,417.122437 404.215271,417.141632 411.075073,414.249329 
	C453.923187,396.183319 496.730621,378.014038 539.766968,360.405457 
	C551.238037,355.712006 556.212952,348.236267 556.196594,336.099609 
	C556.086182,254.276016 556.181091,172.452133 556.206970,90.628357 
	C556.208008,87.296310 556.256836,83.962036 556.157043,80.632584 
	C555.692444,65.125969 547.474426,57.083393 531.996765,57.006634 
	C522.498047,56.959526 512.998962,56.997845 502.500000,56.997803 
z"/>
<path fill="#FEFEFE" opacity="1.000000" stroke="none" 
	d="
M503.000000,56.997803 
	C512.998962,56.997845 522.498047,56.959526 531.996765,57.006634 
	C547.474426,57.083393 555.692444,65.125969 556.157043,80.632584 
	C556.256836,83.962036 556.208008,87.296310 556.206970,90.628357 
	C556.181091,172.452133 556.086182,254.276016 556.196594,336.099609 
	C556.212952,348.236267 551.238037,355.712006 539.766968,360.405457 
	C496.730621,378.014038 453.923187,396.183319 411.075073,414.249329 
	C404.215271,417.141632 397.688385,417.122437 390.837769,414.237762 
	C348.285492,396.319580 305.790009,378.257904 263.031982,360.842224 
	C250.822693,355.869293 245.650070,348.039764 245.682999,335.049408 
	C245.895859,251.059219 245.787903,167.068237 245.811111,83.077522 
	C245.811752,80.753616 245.879593,78.388550 246.297653,76.112762 
	C248.678879,63.150143 255.748245,57.178486 269.025879,57.022923 
	C279.523285,56.899925 290.023285,56.997829 300.522125,56.997826 
	C367.848083,56.997787 435.174042,56.997803 503.000000,56.997803 
M510.256195,144.494812 
	C510.155151,137.335358 510.373413,130.153687 509.877258,123.021729 
	C509.155579,112.647812 502.908081,105.347694 492.654572,104.048973 
	C484.639496,103.033775 476.327759,102.788925 468.315247,103.690224 
	C456.018677,105.073410 449.416504,112.828049 449.050903,125.186890 
	C448.696442,137.170364 448.853027,149.170227 448.860687,161.162857 
	C448.873688,181.484650 448.721069,201.810379 449.079193,222.126678 
	C449.288940,234.025513 455.822662,241.759491 467.640717,243.107880 
	C476.293549,244.095108 485.273529,243.840210 493.928467,242.735138 
	C502.904663,241.589050 509.036652,235.261185 509.671600,226.399750 
	C510.627899,213.052979 509.920746,199.586990 509.920746,185.974365 
	C503.572357,185.974365 496.831421,185.974365 489.700439,185.974365 
	C489.700439,196.468384 489.826508,206.757187 489.653687,217.040955 
	C489.548126,223.319931 487.187592,225.032120 479.695618,225.010422 
	C472.799805,224.990433 470.345215,223.025314 470.113953,217.075180 
	C469.971741,213.415848 470.088928,209.746475 470.088928,206.081604 
	C470.088898,181.260452 470.088104,156.439301 470.089172,131.618149 
	C470.089355,128.049469 470.221100,124.531731 474.139465,122.757782 
	C482.572205,118.940048 489.126129,123.067337 489.130188,132.196579 
	C489.133881,140.447342 489.130951,148.698120 489.130951,157.101761 
	C493.158905,157.101761 496.485504,157.101761 499.812103,157.101761 
	C503.242462,157.101761 506.672821,157.101761 510.256165,157.101761 
	C510.256165,152.801559 510.256165,149.146515 510.256195,144.494812 
M381.269928,192.609055 
	C395.977173,193.035614 406.115479,186.344894 406.767059,173.844620 
	C407.648804,156.927734 407.472260,139.910522 406.792694,122.974770 
	C406.399109,113.166489 399.382416,106.088348 389.563507,105.186058 
	C378.498962,104.169304 367.307556,104.526367 356.170868,104.306839 
	C353.741791,104.258957 351.310974,104.299835 348.966156,104.299835 
	C348.966156,150.818726 348.966156,196.677246 348.966156,242.448334 
	C356.119446,242.448334 362.890991,242.448334 370.037964,242.448334 
	C370.037964,225.746918 370.037964,209.322693 370.037964,192.606522 
	C373.719635,192.606522 377.019714,192.606522 381.269928,192.609055 
M338.902832,239.213486 
	C338.902832,233.953033 338.902832,228.692596 338.902832,223.013794 
	C329.853149,223.013794 321.433075,223.013794 313.014832,223.013794 
	C313.014832,209.167862 313.014832,195.754776 313.014832,181.968353 
	C321.171814,181.968353 329.104767,181.968353 337.263000,181.968353 
	C337.263000,175.351654 337.263000,169.111206 337.263000,162.260010 
	C328.979706,162.260010 320.935181,162.260010 312.967590,162.260010 
	C312.967590,149.207474 312.967590,136.767044 312.967590,123.924484 
	C321.393982,123.924484 329.649658,123.924484 338.098572,123.924484 
	C338.098572,117.256790 338.098572,110.993950 338.098572,104.557274 
	C322.464661,104.557274 307.059540,104.557274 291.559357,104.557274 
	C291.559357,150.691635 291.559357,196.553864 291.559357,242.738846 
	C306.716278,242.738846 321.527802,242.782196 336.337280,242.628326 
	C337.201721,242.619339 338.049561,241.014740 338.902832,239.213486 
M416.802002,239.290451 
	C417.543976,240.434204 418.244293,242.535660 419.034485,242.570023 
	C425.297546,242.842545 431.577667,242.721725 437.880493,242.721725 
	C437.880493,196.344727 437.880493,150.582916 437.880493,104.629456 
	C430.819946,104.629456 423.941864,104.629456 416.802032,104.629456 
	C416.802032,149.413040 416.802032,193.871918 416.802002,239.290451 
M429.944855,279.682800 
	C429.790222,278.573822 430.041046,277.039093 429.406097,276.434387 
	C427.369995,274.495148 417.665100,276.526581 416.091858,279.032654 
	C413.431946,283.269714 410.795837,287.521729 408.018921,291.977356 
	C402.012177,284.170105 400.265228,271.495056 386.270386,276.722473 
	C386.270386,290.335480 386.270386,304.044159 386.270386,317.676880 
	C390.007172,317.676880 393.416138,317.676880 397.162079,317.676880 
	C397.162079,310.032654 397.162079,302.669373 397.162079,294.096985 
	C401.087677,300.083160 404.355225,305.065857 407.857727,310.406860 
	C411.453827,304.947693 414.724915,299.981873 418.699036,293.948822 
	C418.699036,302.745392 418.699036,310.122864 418.699036,317.715271 
	C422.465088,317.715271 426.026306,317.715271 429.944763,317.715271 
	C429.944763,305.194153 429.944763,292.920502 429.944855,279.682800 
M382.547363,381.881744 
	C386.638855,383.264832 390.818298,384.436798 394.795746,386.093719 
	C398.368408,387.582031 401.542877,387.481171 405.233765,386.190521 
	C417.773682,381.805389 430.460480,377.840881 443.083923,373.693695 
	C448.821106,371.808868 454.541260,369.872253 460.269165,367.959167 
	C460.209747,367.771576 460.150330,367.584015 460.090881,367.396423 
	C420.891449,367.396423 381.692017,367.396423 342.228149,367.396423 
	C342.579041,367.893829 342.639130,368.084686 342.751801,368.123749 
	C355.763916,372.634766 368.779907,377.134521 382.547363,381.881744 
M327.668518,315.025116 
	C328.888428,313.798431 331.077820,312.634399 331.161865,311.334320 
	C331.542389,305.447113 331.328278,299.521515 331.328278,293.624115 
	C324.542023,293.624115 318.468506,293.624115 312.352905,293.624115 
	C312.352905,296.541626 312.352905,299.140259 312.352905,301.950958 
	C315.162933,302.089539 317.756592,302.217438 321.644928,302.409210 
	C320.429260,304.706787 319.981720,306.985382 318.638153,307.817749 
	C314.915253,310.124207 308.962860,308.845428 305.750977,305.619812 
	C302.146393,301.999817 301.372223,296.174744 303.859772,291.389954 
	C306.208649,286.871887 310.416992,284.678314 315.411316,285.871704 
	C318.211426,286.540802 320.840057,287.927490 323.722168,289.060059 
	C325.787842,286.581543 327.894989,284.053253 329.997406,281.530670 
	C324.325012,276.466156 317.293701,274.278442 310.115753,275.254181 
	C298.143402,276.881653 290.206818,286.315979 290.667999,298.371979 
	C291.101166,309.696259 299.782471,318.631378 311.661530,318.721375 
	C316.758545,318.759979 321.872375,316.579590 327.668518,315.025116 
M458.486237,276.019867 
	C451.736847,276.019867 444.987457,276.019867 438.396790,276.019867 
	C438.396790,290.387451 438.396790,304.088165 438.396790,317.937592 
	C444.244812,317.937592 449.726746,317.937561 455.208679,317.937561 
	C460.651215,317.937561 466.093750,317.937592 471.519897,317.937592 
	C471.519897,314.381195 471.519897,311.354645 471.519897,307.861847 
	C463.918365,307.861847 456.701172,307.861847 449.677216,307.861847 
	C449.677216,305.600372 449.677216,303.818939 449.677216,301.425171 
	C456.211700,301.425171 462.567444,301.425171 468.878571,301.425171 
	C468.878571,298.036621 468.878571,295.271057 468.878571,291.999664 
	C462.269318,291.999664 455.879669,291.999664 449.709717,291.999664 
	C449.709717,289.713745 449.709717,287.945374 449.709717,285.635803 
	C456.965637,285.635803 464.008179,285.635803 471.117981,285.635803 
	C471.117981,282.146851 471.117981,279.212097 471.117981,276.019867 
	C467.094299,276.019867 463.286865,276.019867 458.486237,276.019867 
M478.197754,314.140503 
	C485.820282,318.823120 493.942688,320.263428 502.538452,317.498230 
	C508.141418,315.695801 511.220032,311.253784 511.336761,305.513123 
	C511.447510,300.064423 509.014526,296.308472 503.377258,294.133423 
	C499.826752,292.763519 495.976318,292.171326 492.424988,290.803162 
	C490.981323,290.247009 489.974152,288.557831 488.768341,287.384186 
	C490.418640,286.586975 492.220490,284.911835 493.689392,285.165405 
	C497.359222,285.798920 500.877869,287.308105 504.859680,288.596069 
	C506.432373,286.354401 508.296356,283.697510 510.206146,280.975311 
	C504.288177,276.155334 497.717285,274.800568 490.768860,275.312286 
	C483.136139,275.874420 477.676941,280.972473 477.128387,287.506195 
	C476.563660,294.232513 479.915558,298.401978 487.956451,300.840668 
	C490.497192,301.611206 493.209534,301.931824 495.620148,302.974365 
	C497.222809,303.667450 498.429596,305.275848 499.813568,306.474579 
	C498.000458,307.356750 495.995789,309.235596 494.410828,308.930939 
	C489.973297,308.077881 485.709137,306.322723 481.010773,304.805389 
	C479.420410,306.707245 477.413086,309.107758 475.286011,311.651428 
	C476.104797,312.422668 476.814911,313.091553 478.197754,314.140503 
M380.006683,313.783691 
	C375.118103,302.221100 370.045746,290.730713 365.455963,279.050690 
	C364.127625,275.670441 362.067200,275.432831 359.323700,275.749390 
	C356.502808,276.074829 353.327087,274.368896 351.601471,278.921814 
	C347.390259,290.032684 342.486908,300.881256 337.862610,311.835602 
	C337.058716,313.739929 336.256561,315.644989 335.279266,317.963226 
	C337.877716,317.963226 339.731995,317.748505 341.518127,318.006226 
	C345.733063,318.614441 348.527679,317.472717 349.324432,312.860840 
	C349.488373,311.911804 350.577789,310.412018 351.290131,310.383057 
	C356.096558,310.187622 361.057220,309.672943 365.660004,310.675476 
	C367.415833,311.057892 368.361176,315.161530 369.803040,317.802185 
	C373.345612,317.802185 377.146545,317.802185 381.344940,317.802185 
	C380.959991,316.646301 380.616150,315.613800 380.006683,313.783691 
z"/>
<path fill="#020202" opacity="0.000000" stroke="none" 
	d="
M510.256165,144.993134 
	C510.256165,149.146515 510.256165,152.801559 510.256165,157.101761 
	C506.672821,157.101761 503.242462,157.101761 499.812103,157.101761 
	C496.485504,157.101761 493.158905,157.101761 489.130951,157.101761 
	C489.130951,148.698120 489.133881,140.447342 489.130188,132.196579 
	C489.126129,123.067337 482.572205,118.940048 474.139465,122.757782 
	C470.221100,124.531731 470.089355,128.049469 470.089172,131.618149 
	C470.088104,156.439301 470.088898,181.260452 470.088928,206.081604 
	C470.088928,209.746475 469.971741,213.415848 470.113953,217.075180 
	C470.345215,223.025314 472.799805,224.990433 479.695618,225.010422 
	C487.187592,225.032120 489.548126,223.319931 489.653687,217.040955 
	C489.826508,206.757187 489.700439,196.468384 489.700439,185.974365 
	C496.831421,185.974365 503.572357,185.974365 509.920746,185.974365 
	C509.920746,199.586990 510.627899,213.052979 509.671600,226.399750 
	C509.036652,235.261185 502.904663,241.589050 493.928467,242.735138 
	C485.273529,243.840210 476.293549,244.095108 467.640717,243.107880 
	C455.822662,241.759491 449.288940,234.025513 449.079193,222.126678 
	C448.721069,201.810379 448.873688,181.484650 448.860687,161.162857 
	C448.853027,149.170227 448.696442,137.170364 449.050903,125.186890 
	C449.416504,112.828049 456.018677,105.073410 468.315247,103.690224 
	C476.327759,102.788925 484.639496,103.033775 492.654572,104.048973 
	C502.908081,105.347694 509.155579,112.647812 509.877258,123.021729 
	C510.373413,130.153687 510.155151,137.335358 510.256165,144.993134 
z"/>
<path fill="#030303" opacity="0.000000" stroke="none" 
	d="
M380.794861,192.607788 
	C377.019714,192.606522 373.719635,192.606522 370.037964,192.606522 
	C370.037964,209.322693 370.037964,225.746918 370.037964,242.448334 
	C362.890991,242.448334 356.119446,242.448334 348.966156,242.448334 
	C348.966156,196.677246 348.966156,150.818726 348.966156,104.299835 
	C351.310974,104.299835 353.741791,104.258957 356.170868,104.306839 
	C367.307556,104.526367 378.498962,104.169304 389.563507,105.186058 
	C399.382416,106.088348 406.399109,113.166489 406.792694,122.974770 
	C407.472260,139.910522 407.648804,156.927734 406.767059,173.844620 
	C406.115479,186.344894 395.977173,193.035614 380.794861,192.607788 
M383.011047,124.224640 
	C378.813141,123.774429 374.615234,123.324219 370.249298,122.855988 
	C370.249298,140.265305 370.249298,156.801346 370.249298,173.686279 
	C372.665070,173.686279 374.801483,173.701355 376.937592,173.683533 
	C384.194244,173.622986 386.037720,171.771194 386.047119,164.474106 
	C386.061249,153.491074 386.183350,142.505081 385.941406,131.527359 
	C385.891357,129.255875 384.448639,127.015083 383.011047,124.224640 
z"/>
<path fill="#080808" opacity="0.000000" stroke="none" 
	d="
M338.903992,239.683090 
	C338.049561,241.014740 337.201721,242.619339 336.337280,242.628326 
	C321.527802,242.782196 306.716278,242.738846 291.559357,242.738846 
	C291.559357,196.553864 291.559357,150.691635 291.559357,104.557274 
	C307.059540,104.557274 322.464661,104.557274 338.098572,104.557274 
	C338.098572,110.993950 338.098572,117.256790 338.098572,123.924484 
	C329.649658,123.924484 321.393982,123.924484 312.967590,123.924484 
	C312.967590,136.767044 312.967590,149.207474 312.967590,162.260010 
	C320.935181,162.260010 328.979706,162.260010 337.263000,162.260010 
	C337.263000,169.111206 337.263000,175.351654 337.263000,181.968353 
	C329.104767,181.968353 321.171814,181.968353 313.014832,181.968353 
	C313.014832,195.754776 313.014832,209.167862 313.014832,223.013794 
	C321.433075,223.013794 329.853149,223.013794 338.902832,223.013794 
	C338.902832,228.692596 338.902832,233.953033 338.903992,239.683090 
z"/>
<path fill="#020202" opacity="0.000000" stroke="none" 
	d="
M416.802002,238.810638 
	C416.802032,193.871918 416.802032,149.413040 416.802032,104.629456 
	C423.941864,104.629456 430.819946,104.629456 437.880493,104.629456 
	C437.880493,150.582916 437.880493,196.344727 437.880493,242.721725 
	C431.577667,242.721725 425.297546,242.842545 419.034485,242.570023 
	C418.244293,242.535660 417.543976,240.434204 416.802002,238.810638 
z"/>
<path fill="#030303" opacity="0.000000" stroke="none" 
	d="
M429.944824,280.164825 
	C429.944763,292.920502 429.944763,305.194153 429.944763,317.715271 
	C426.026306,317.715271 422.465088,317.715271 418.699036,317.715271 
	C418.699036,310.122864 418.699036,302.745392 418.699036,293.948822 
	C414.724915,299.981873 411.453827,304.947693 407.857727,310.406860 
	C404.355225,305.065857 401.087677,300.083160 397.162079,294.096985 
	C397.162079,302.669373 397.162079,310.032654 397.162079,317.676880 
	C393.416138,317.676880 390.007172,317.676880 386.270386,317.676880 
	C386.270386,304.044159 386.270386,290.335480 386.270386,276.722473 
	C400.265228,271.495056 402.012177,284.170105 408.018921,291.977356 
	C410.795837,287.521729 413.431946,283.269714 416.091858,279.032654 
	C417.665100,276.526581 427.369995,274.495148 429.406097,276.434387 
	C430.041046,277.039093 429.790222,278.573822 429.944824,280.164825 
z"/>
<path fill="#070707" opacity="0.000000" stroke="none" 
	d="
M382.171539,381.758301 
	C368.779907,377.134521 355.763916,372.634766 342.751801,368.123749 
	C342.639130,368.084686 342.579041,367.893829 342.228149,367.396423 
	C381.692017,367.396423 420.891449,367.396423 460.090881,367.396423 
	C460.150330,367.584015 460.209747,367.771576 460.269165,367.959167 
	C454.541260,369.872253 448.821106,371.808868 443.083923,373.693695 
	C430.460480,377.840881 417.773682,381.805389 405.233765,386.190521 
	C401.542877,387.481171 398.368408,387.582031 394.795746,386.093719 
	C390.818298,384.436798 386.638855,383.264832 382.171539,381.758301 
z"/>
<path fill="#070707" opacity="0.000000" stroke="none" 
	d="
M327.323547,315.216278 
	C321.872375,316.579590 316.758545,318.759979 311.661530,318.721375 
	C299.782471,318.631378 291.101166,309.696259 290.667999,298.371979 
	C290.206818,286.315979 298.143402,276.881653 310.115753,275.254181 
	C317.293701,274.278442 324.325012,276.466156 329.997406,281.530670 
	C327.894989,284.053253 325.787842,286.581543 323.722168,289.060059 
	C320.840057,287.927490 318.211426,286.540802 315.411316,285.871704 
	C310.416992,284.678314 306.208649,286.871887 303.859772,291.389954 
	C301.372223,296.174744 302.146393,301.999817 305.750977,305.619812 
	C308.962860,308.845428 314.915253,310.124207 318.638153,307.817749 
	C319.981720,306.985382 320.429260,304.706787 321.644928,302.409210 
	C317.756592,302.217438 315.162933,302.089539 312.352905,301.950958 
	C312.352905,299.140259 312.352905,296.541626 312.352905,293.624115 
	C318.468506,293.624115 324.542023,293.624115 331.328278,293.624115 
	C331.328278,299.521515 331.542389,305.447113 331.161865,311.334320 
	C331.077820,312.634399 328.888428,313.798431 327.323547,315.216278 
z"/>
<path fill="#090909" opacity="0.000000" stroke="none" 
	d="
M458.982849,276.019867 
	C463.286865,276.019867 467.094299,276.019867 471.117981,276.019867 
	C471.117981,279.212097 471.117981,282.146851 471.117981,285.635803 
	C464.008179,285.635803 456.965637,285.635803 449.709717,285.635803 
	C449.709717,287.945374 449.709717,289.713745 449.709717,291.999664 
	C455.879669,291.999664 462.269318,291.999664 468.878571,291.999664 
	C468.878571,295.271057 468.878571,298.036621 468.878571,301.425171 
	C462.567444,301.425171 456.211700,301.425171 449.677216,301.425171 
	C449.677216,303.818939 449.677216,305.600372 449.677216,307.861847 
	C456.701172,307.861847 463.918365,307.861847 471.519897,307.861847 
	C471.519897,311.354645 471.519897,314.381195 471.519897,317.937592 
	C466.093750,317.937592 460.651215,317.937561 455.208679,317.937561 
	C449.726746,317.937561 444.244812,317.937592 438.396790,317.937592 
	C438.396790,304.088165 438.396790,290.387451 438.396790,276.019867 
	C444.987457,276.019867 451.736847,276.019867 458.982849,276.019867 
z"/>
<path fill="#080808" opacity="0.000000" stroke="none" 
	d="
M477.861389,313.950470 
	C476.814911,313.091553 476.104797,312.422668 475.286011,311.651428 
	C477.413086,309.107758 479.420410,306.707245 481.010773,304.805389 
	C485.709137,306.322723 489.973297,308.077881 494.410828,308.930939 
	C495.995789,309.235596 498.000458,307.356750 499.813568,306.474579 
	C498.429596,305.275848 497.222809,303.667450 495.620148,302.974365 
	C493.209534,301.931824 490.497192,301.611206 487.956451,300.840668 
	C479.915558,298.401978 476.563660,294.232513 477.128387,287.506195 
	C477.676941,280.972473 483.136139,275.874420 490.768860,275.312286 
	C497.717285,274.800568 504.288177,276.155334 510.206146,280.975311 
	C508.296356,283.697510 506.432373,286.354401 504.859680,288.596069 
	C500.877869,287.308105 497.359222,285.798920 493.689392,285.165405 
	C492.220490,284.911835 490.418640,286.586975 488.768341,287.384186 
	C489.974152,288.557831 490.981323,290.247009 492.424988,290.803162 
	C495.976318,292.171326 499.826752,292.763519 503.377258,294.133423 
	C509.014526,296.308472 511.447510,300.064423 511.336761,305.513123 
	C511.220032,311.253784 508.141418,315.695801 502.538452,317.498230 
	C493.942688,320.263428 485.820282,318.823120 477.861389,313.950470 
z"/>
<path fill="#040404" opacity="0.000000" stroke="none" 
	d="
M380.139465,314.182495 
	C380.616150,315.613800 380.959991,316.646301 381.344940,317.802185 
	C377.146545,317.802185 373.345612,317.802185 369.803040,317.802185 
	C368.361176,315.161530 367.415833,311.057892 365.660004,310.675476 
	C361.057220,309.672943 356.096558,310.187622 351.290131,310.383057 
	C350.577789,310.412018 349.488373,311.911804 349.324432,312.860840 
	C348.527679,317.472717 345.733063,318.614441 341.518127,318.006226 
	C339.731995,317.748505 337.877716,317.963226 335.279266,317.963226 
	C336.256561,315.644989 337.058716,313.739929 337.862610,311.835602 
	C342.486908,300.881256 347.390259,290.032684 351.601471,278.921814 
	C353.327087,274.368896 356.502808,276.074829 359.323700,275.749390 
	C362.067200,275.432831 364.127625,275.670441 365.455963,279.050690 
	C370.045746,290.730713 375.118103,302.221100 380.139465,314.182495 
M355.975647,295.601318 
	C355.340424,297.273804 354.705231,298.946289 354.044830,300.685059 
	C356.989227,300.685059 359.647156,300.685059 362.735382,300.685059 
	C361.259735,296.939850 359.963684,293.650452 358.468781,289.856384 
	C357.563110,291.884216 356.893372,293.383728 355.975647,295.601318 
z"/>
<path fill="#FCFCFC" opacity="1.000000" stroke="none" 
	d="
M383.329437,124.492393 
	C384.448639,127.015083 385.891357,129.255875 385.941406,131.527359 
	C386.183350,142.505081 386.061249,153.491074 386.047119,164.474106 
	C386.037720,171.771194 384.194244,173.622986 376.937592,173.683533 
	C374.801483,173.701355 372.665070,173.686279 370.249298,173.686279 
	C370.249298,156.801346 370.249298,140.265305 370.249298,122.855988 
	C374.615234,123.324219 378.813141,123.774429 383.329437,124.492393 
z"/>
<path fill="#EFEEEE" opacity="1.000000" stroke="none" 
	d="
M356.099670,295.242279 
	C356.893372,293.383728 357.563110,291.884216 358.468781,289.856384 
	C359.963684,293.650452 361.259735,296.939850 362.735382,300.685059 
	C359.647156,300.685059 356.989227,300.685059 354.044830,300.685059 
	C354.705231,298.946289 355.340424,297.273804 356.099670,295.242279 
z"/>
</svg>