<svg version="1.1" id="Layer_1" xmlns="http://www.w3.org/2000/svg" xmlns:xlink="http://www.w3.org/1999/xlink" x="0px" y="0px"
	 width="100%" viewBox="0 0 1361 591" enable-background="new 0 0 1361 591" xml:space="preserve">
<path fill="#FEFEFE" opacity="0.000000" stroke="none" 
	d="
M1051.000000,592.000000 
	C700.711365,592.000000 350.922791,592.000000 1.067090,592.000000 
	C1.067090,395.069946 1.067090,198.139832 1.067090,1.104871 
	C454.666656,1.104871 908.333313,1.104871 1361.979736,1.104871 
	C1361.979736,198.077454 1361.979736,395.038727 1361.979736,592.000000 
	C1258.472900,592.000000 1154.986450,592.000000 1051.000000,592.000000 
M801.778503,530.715942 
	C818.638550,549.296570 844.652039,552.721863 864.617981,544.354797 
	C888.343628,534.412231 900.758240,516.185730 900.710144,489.422546 
	C900.494690,369.602173 900.764160,249.780930 900.769531,129.959991 
	C900.769836,122.143356 901.202393,114.044731 899.412720,106.560585 
	C892.886047,79.267303 866.475098,62.114723 841.197876,63.378078 
	C824.021973,64.236534 808.914429,71.099930 798.283630,85.414284 
	C791.524353,94.515656 785.748779,103.925415 785.728516,116.124557 
	C785.634766,172.615845 785.187134,229.106628 784.800659,285.597137 
	C784.766296,290.619568 784.259521,295.638763 783.898010,301.955688 
	C781.569458,299.189331 780.061890,297.655334 778.846802,295.916870 
	C752.248291,257.860931 725.696411,219.772415 699.105652,181.711029 
	C677.376709,150.608765 655.880554,119.338600 633.757019,88.519157 
	C620.257874,69.713966 601.396790,61.493294 578.202637,64.058426 
	C553.647705,66.774055 528.742065,90.521622 528.767944,116.114372 
	C528.795532,143.433411 527.621033,170.752441 527.548950,198.073013 
	C527.359863,269.733978 527.426819,341.395813 527.517334,413.057190 
	C527.548523,437.718689 527.712952,462.385620 528.319031,487.037689 
	C528.517273,495.102295 528.525879,503.919647 531.689575,511.026947 
	C542.404358,535.098022 560.738098,547.936890 588.233643,548.292053 
	C613.473999,548.617981 642.782776,524.490662 643.844666,494.553223 
	C644.198914,484.564270 644.242798,474.562012 644.298584,464.565125 
	C644.576904,414.741608 644.809326,364.917816 645.075867,315.094208 
	C645.083313,313.708282 645.292419,312.323364 645.407532,310.937958 
	C645.802917,310.770935 646.198303,310.603912 646.593689,310.436890 
	C650.307617,315.643799 654.068054,320.818298 657.728394,326.062653 
	C694.294556,378.452911 730.787170,430.894653 767.433167,483.228973 
	C778.503113,499.037903 789.985291,514.558167 801.778503,530.715942 
M463.164581,163.338623 
	C436.860352,128.335983 404.379822,100.917694 364.045624,83.380875 
	C325.588776,66.660324 285.338928,60.525990 243.626404,64.439972 
	C216.959045,66.942230 191.330719,73.770729 166.980804,84.924355 
	C143.365433,95.741539 122.295830,110.286446 103.325050,128.182175 
	C53.523689,175.161377 26.666937,232.035217 25.850500,301.041901 
	C25.506241,330.139069 28.320730,358.547699 38.540684,385.853577 
	C59.744537,442.506439 95.315460,487.052521 148.401016,517.422546 
	C193.880875,543.441345 242.740372,551.336487 294.068665,547.138000 
	C317.176971,545.247681 339.456329,539.015747 360.822174,529.955933 
	C390.429962,517.401306 416.573517,499.592712 439.162537,476.719971 
	C473.269440,442.184662 495.159454,401.057068 504.635162,353.431030 
	C513.235901,310.202606 510.213959,267.725586 495.861145,226.053574 
	C488.177521,203.744873 477.171326,183.161057 463.164581,163.338623 
M1184.024780,70.332336 
	C1176.739014,68.244896 1169.569336,65.345665 1162.137085,64.283714 
	C1153.615112,63.066051 1144.859131,63.198944 1136.206543,63.227535 
	C1080.915283,63.410217 1025.624634,63.820831 970.333252,63.931458 
	C956.261841,63.959610 944.509216,69.135529 934.000793,78.013306 
	C908.749634,99.345963 908.923645,140.788879 930.110413,161.484390 
	C943.575256,174.637039 959.164551,179.919495 977.428406,179.885544 
	C1035.393921,179.777832 1093.359985,179.788559 1151.325439,179.901855 
	C1168.085693,179.934631 1183.022217,175.798141 1195.682617,164.094849 
	C1209.062622,151.726410 1215.449951,136.103836 1214.522339,118.670273 
	C1213.416992,97.892410 1202.812622,81.605560 1184.024780,70.332336 
M1194.589233,534.109619 
	C1195.619873,533.024719 1196.695068,531.978394 1197.674438,530.849121 
	C1211.001343,515.483582 1217.789673,498.391663 1213.059570,477.626434 
	C1206.823120,450.247498 1179.745483,430.784332 1156.834229,432.838043 
	C1147.767334,433.650787 1138.537720,432.492676 1129.382568,432.504852 
	C1078.752441,432.572205 1028.122314,432.704773 977.492371,432.872223 
	C971.674011,432.891449 965.665100,432.390411 960.069702,433.615662 
	C918.238159,442.775604 902.120483,489.709320 924.114746,522.579285 
	C936.400208,540.939636 954.292175,548.151123 976.265015,548.024780 
	C1039.223389,547.662659 1102.185425,547.963989 1165.146118,547.978699 
	C1166.788208,547.979065 1168.672607,548.151428 1170.032471,547.447937 
	C1178.095459,543.276184 1186.036865,538.869446 1194.589233,534.109619 
M1106.751587,345.246185 
	C1126.136841,324.437744 1127.791504,295.539276 1112.029907,272.775543 
	C1101.228271,257.175079 1085.465088,247.897430 1065.419434,247.965683 
	C1041.257568,248.047958 1017.093567,247.721695 992.933289,247.916321 
	C983.141785,247.995193 972.976746,247.479996 963.643799,249.846329 
	C938.805054,256.144043 922.535645,276.996155 920.690247,302.560150 
	C918.442139,333.702972 943.220581,362.841034 974.212097,363.743073 
	C1004.992859,364.638916 1035.821655,364.125092 1066.626221,363.858612 
	C1082.353271,363.722626 1095.661743,357.508301 1106.751587,345.246185 
M1315.300415,464.202301 
	C1302.334351,451.899933 1286.922852,447.543823 1269.809570,452.110199 
	C1233.539185,461.788330 1221.303711,504.826813 1246.016846,532.773376 
	C1262.821777,551.777222 1298.234741,553.461426 1317.760254,533.020630 
	C1331.252075,518.896423 1334.203369,490.235840 1324.669434,476.081512 
	C1321.989258,472.102386 1318.768799,468.487305 1315.300415,464.202301 
z"/>
<path fill="#FEFEFE" opacity="1.000000" stroke="none" 
	d="
M801.528564,530.463257 
	C789.985291,514.558167 778.503113,499.037903 767.433167,483.228973 
	C730.787170,430.894653 694.294556,378.452911 657.728394,326.062653 
	C654.068054,320.818298 650.307617,315.643799 646.593689,310.436890 
	C646.198303,310.603912 645.802917,310.770935 645.407532,310.937958 
	C645.292419,312.323364 645.083313,313.708282 645.075867,315.094208 
	C644.809326,364.917816 644.576904,414.741608 644.298584,464.565125 
	C644.242798,474.562012 644.198914,484.564270 643.844666,494.553223 
	C642.782776,524.490662 613.473999,548.617981 588.233643,548.292053 
	C560.738098,547.936890 542.404358,535.098022 531.689575,511.026947 
	C528.525879,503.919647 528.517273,495.102295 528.319031,487.037689 
	C527.712952,462.385620 527.548523,437.718689 527.517334,413.057190 
	C527.426819,341.395813 527.359863,269.733978 527.548950,198.073013 
	C527.621033,170.752441 528.795532,143.433411 528.767944,116.114372 
	C528.742065,90.521622 553.647705,66.774055 578.202637,64.058426 
	C601.396790,61.493294 620.257874,69.713966 633.757019,88.519157 
	C655.880554,119.338600 677.376709,150.608765 699.105652,181.711029 
	C725.696411,219.772415 752.248291,257.860931 778.846802,295.916870 
	C780.061890,297.655334 781.569458,299.189331 783.898010,301.955688 
	C784.259521,295.638763 784.766296,290.619568 784.800659,285.597137 
	C785.187134,229.106628 785.634766,172.615845 785.728516,116.124557 
	C785.748779,103.925415 791.524353,94.515656 798.283630,85.414284 
	C808.914429,71.099930 824.021973,64.236534 841.197876,63.378078 
	C866.475098,62.114723 892.886047,79.267303 899.412720,106.560585 
	C901.202393,114.044731 900.769836,122.143356 900.769531,129.959991 
	C900.764160,249.780930 900.494690,369.602173 900.710144,489.422546 
	C900.758240,516.185730 888.343628,534.412231 864.617981,544.354797 
	C844.652039,552.721863 818.638550,549.296570 801.528564,530.463257 
z"/>
<path fill="#FEFEFE" opacity="1.000000" stroke="none" 
	d="
M463.382935,163.623367 
	C477.171326,183.161057 488.177521,203.744873 495.861145,226.053574 
	C510.213959,267.725586 513.235901,310.202606 504.635162,353.431030 
	C495.159454,401.057068 473.269440,442.184662 439.162537,476.719971 
	C416.573517,499.592712 390.429962,517.401306 360.822174,529.955933 
	C339.456329,539.015747 317.176971,545.247681 294.068665,547.138000 
	C242.740372,551.336487 193.880875,543.441345 148.401016,517.422546 
	C95.315460,487.052521 59.744537,442.506439 38.540684,385.853577 
	C28.320730,358.547699 25.506241,330.139069 25.850500,301.041901 
	C26.666937,232.035217 53.523689,175.161377 103.325050,128.182175 
	C122.295830,110.286446 143.365433,95.741539 166.980804,84.924355 
	C191.330719,73.770729 216.959045,66.942230 243.626404,64.439972 
	C285.338928,60.525990 325.588776,66.660324 364.045624,83.380875 
	C404.379822,100.917694 436.860352,128.335983 463.382935,163.623367 
M398.655579,274.965820 
	C390.431610,241.409409 372.128876,214.514557 343.930267,194.818008 
	C317.397522,176.285049 287.491638,167.979767 255.245651,171.246323 
	C216.781265,175.142776 184.774170,191.983246 161.032120,223.019653 
	C131.494141,261.632721 124.795807,304.724640 139.701706,350.357605 
	C150.549133,383.565979 173.153885,408.097748 203.679840,425.296143 
	C226.667526,438.247498 251.408478,441.532715 277.335358,440.539703 
	C291.908844,439.981476 305.778717,436.861755 318.812225,431.046051 
	C356.730072,414.126587 383.128754,386.382416 395.827698,346.326691 
	C403.203369,323.061829 402.684387,299.488953 398.655579,274.965820 
z"/>
<path fill="#FEFEFE" opacity="1.000000" stroke="none" 
	d="
M1184.332764,70.538643 
	C1202.812622,81.605560 1213.416992,97.892410 1214.522339,118.670273 
	C1215.449951,136.103836 1209.062622,151.726410 1195.682617,164.094849 
	C1183.022217,175.798141 1168.085693,179.934631 1151.325439,179.901855 
	C1093.359985,179.788559 1035.393921,179.777832 977.428406,179.885544 
	C959.164551,179.919495 943.575256,174.637039 930.110413,161.484390 
	C908.923645,140.788879 908.749634,99.345963 934.000793,78.013306 
	C944.509216,69.135529 956.261841,63.959610 970.333252,63.931458 
	C1025.624634,63.820831 1080.915283,63.410217 1136.206543,63.227535 
	C1144.859131,63.198944 1153.615112,63.066051 1162.137085,64.283714 
	C1169.569336,65.345665 1176.739014,68.244896 1184.332764,70.538643 
z"/>
<path fill="#FEFEFE" opacity="1.000000" stroke="none" 
	d="
M1194.304199,534.325684 
	C1186.036865,538.869446 1178.095459,543.276184 1170.032471,547.447937 
	C1168.672607,548.151428 1166.788208,547.979065 1165.146118,547.978699 
	C1102.185425,547.963989 1039.223389,547.662659 976.265015,548.024780 
	C954.292175,548.151123 936.400208,540.939636 924.114746,522.579285 
	C902.120483,489.709320 918.238159,442.775604 960.069702,433.615662 
	C965.665100,432.390411 971.674011,432.891449 977.492371,432.872223 
	C1028.122314,432.704773 1078.752441,432.572205 1129.382568,432.504852 
	C1138.537720,432.492676 1147.767334,433.650787 1156.834229,432.838043 
	C1179.745483,430.784332 1206.823120,450.247498 1213.059570,477.626434 
	C1217.789673,498.391663 1211.001343,515.483582 1197.674438,530.849121 
	C1196.695068,531.978394 1195.619873,533.024719 1194.304199,534.325684 
z"/>
<path fill="#FEFEFE" opacity="1.000000" stroke="none" 
	d="
M1106.514893,345.511536 
	C1095.661743,357.508301 1082.353271,363.722626 1066.626221,363.858612 
	C1035.821655,364.125092 1004.992859,364.638916 974.212097,363.743073 
	C943.220581,362.841034 918.442139,333.702972 920.690247,302.560150 
	C922.535645,276.996155 938.805054,256.144043 963.643799,249.846329 
	C972.976746,247.479996 983.141785,247.995193 992.933289,247.916321 
	C1017.093567,247.721695 1041.257568,248.047958 1065.419434,247.965683 
	C1085.465088,247.897430 1101.228271,257.175079 1112.029907,272.775543 
	C1127.791504,295.539276 1126.136841,324.437744 1106.514893,345.511536 
z"/>
<path fill="#FEFEFE" opacity="1.000000" stroke="none" 
	d="
M1315.548340,464.453735 
	C1318.768799,468.487305 1321.989258,472.102386 1324.669434,476.081512 
	C1334.203369,490.235840 1331.252075,518.896423 1317.760254,533.020630 
	C1298.234741,553.461426 1262.821777,551.777222 1246.016846,532.773376 
	C1221.303711,504.826813 1233.539185,461.788330 1269.809570,452.110199 
	C1286.922852,447.543823 1302.334351,451.899933 1315.548340,464.453735 
z"/>
<path fill="#FEFEFE" opacity="0.000000" stroke="none" 
	d="
M398.780029,275.361053 
	C402.684387,299.488953 403.203369,323.061829 395.827698,346.326691 
	C383.128754,386.382416 356.730072,414.126587 318.812225,431.046051 
	C305.778717,436.861755 291.908844,439.981476 277.335358,440.539703 
	C251.408478,441.532715 226.667526,438.247498 203.679840,425.296143 
	C173.153885,408.097748 150.549133,383.565979 139.701706,350.357605 
	C124.795807,304.724640 131.494141,261.632721 161.032120,223.019653 
	C184.774170,191.983246 216.781265,175.142776 255.245651,171.246323 
	C287.491638,167.979767 317.397522,176.285049 343.930267,194.818008 
	C372.128876,214.514557 390.431610,241.409409 398.780029,275.361053 
z"/>
</svg>