<svg version="1.1" id="Layer_1" xmlns="http://www.w3.org/2000/svg" xmlns:xlink="http://www.w3.org/1999/xlink" x="0px" y="0px"
	 width="100%" viewBox="0 0 1234 913" enable-background="new 0 0 1234 913" xml:space="preserve">
<path fill="#FFFFFF" opacity="0.000000" stroke="none" 
	d="
M760.000000,914.000000 
	C506.696045,914.000000 253.892105,914.000000 1.044080,914.000000 
	C1.044080,609.731445 1.044080,305.462860 1.044080,1.097139 
	C412.220764,1.097139 823.441528,1.097139 1234.831177,1.097139 
	C1234.831177,305.333252 1234.831177,609.666626 1234.831177,914.000000 
	C1076.795898,914.000000 918.647949,914.000000 760.000000,914.000000 
M531.010925,41.440132 
	C462.786621,66.664299 413.293915,112.393990 382.053314,177.921356 
	C369.508301,204.234589 362.316559,232.129715 359.068359,261.049561 
	C358.750031,263.883575 357.642517,266.864868 362.109344,268.706329 
	C406.285858,286.918060 450.335083,305.438599 494.482330,323.721985 
	C496.083649,324.385132 498.690826,324.131714 500.208984,323.244324 
	C512.368713,316.136658 525.273560,312.001740 539.477051,311.951233 
	C541.351685,311.944550 543.912842,310.566345 544.988037,309.014252 
	C564.499390,280.847687 583.856689,252.574036 603.137817,224.249069 
	C604.260925,222.599121 604.982605,220.324371 605.001099,218.332138 
	C605.105408,207.067764 607.214111,196.185242 611.163635,185.707748 
	C628.435242,139.888596 674.996582,114.098724 721.734375,123.449341 
	C774.394592,133.984818 806.594727,183.871765 800.161194,233.312057 
	C794.434021,277.324310 756.946411,314.268524 712.406982,318.032135 
	C705.915649,318.580658 699.718445,318.985474 693.828430,323.393463 
	C669.985718,341.237061 645.754150,358.568817 621.433228,375.759979 
	C615.654175,379.844910 611.198425,383.767212 612.733154,391.642090 
	C613.123535,393.645233 612.293457,395.905884 611.932922,398.032745 
	C606.181396,431.964020 577.309692,460.079102 538.655884,459.531982 
	C504.666656,459.050842 477.648712,437.005463 468.740143,404.434509 
	C467.754364,400.830475 465.935760,399.279297 462.848541,398.005585 
	C441.066071,389.018494 419.328094,379.923645 397.575226,370.864899 
	C388.145630,366.938080 378.714447,363.015137 368.300415,358.681122 
	C369.158539,361.886871 369.652161,364.094482 370.338226,366.240570 
	C384.453278,410.393890 407.883301,448.882568 442.280548,479.985870 
	C507.469421,538.932251 583.812561,560.155701 669.988281,543.437134 
	C722.386597,533.271545 767.297302,508.000885 803.718262,468.978241 
	C864.868164,403.460419 887.097046,325.761108 871.534302,237.873367 
	C861.606323,181.807236 834.478027,134.325439 792.666870,95.624161 
	C747.596375,53.906044 694.062561,31.157206 632.855103,27.113831 
	C598.299744,24.831100 564.487976,29.557945 531.010925,41.440132 
M923.163879,739.260742 
	C915.332214,722.225525 907.527588,705.177673 899.608032,688.183411 
	C899.082642,687.056091 897.694641,685.559998 896.688110,685.544861 
	C884.564758,685.362183 872.437683,685.426697 860.203247,685.426697 
	C860.203247,750.265442 860.203247,814.644104 860.203247,879.031128 
	C872.927856,879.031128 885.357971,879.031128 898.224976,879.031128 
	C898.224976,840.478638 898.224976,802.131714 898.224976,763.784790 
	C899.845520,764.901245 900.579895,766.259583 901.220886,767.660645 
	C916.891663,801.912781 932.521362,836.183899 948.315369,870.379089 
	C949.033142,871.933167 951.163086,873.748230 952.728210,873.838928 
	C959.360352,874.223511 966.027588,874.002075 972.860718,874.002075 
	C990.043274,836.889526 1007.190369,799.853516 1024.337402,762.817444 
	C1024.732544,762.934631 1025.127563,763.051880 1025.522705,763.169067 
	C1025.522705,801.750000 1025.522705,840.330872 1025.522705,878.980225 
	C1038.536377,878.980225 1051.111572,878.980225 1063.639404,878.980225 
	C1063.639404,814.367310 1063.639404,750.015137 1063.639404,685.418335 
	C1052.465942,685.418335 1041.647095,685.635620 1030.844849,685.307190 
	C1026.752930,685.182739 1024.694824,686.511475 1023.067139,690.192078 
	C1005.754761,729.342712 988.301941,768.431213 970.876160,807.531616 
	C968.346130,813.208496 965.755920,818.858521 962.856201,825.266602 
	C949.470459,796.210022 936.504211,768.064209 923.163879,739.260742 
M666.106323,788.639343 
	C655.009827,818.628296 643.913391,848.617310 632.676575,878.985718 
	C646.898743,878.985718 660.637512,878.985718 674.607056,878.985718 
	C678.721985,866.700989 682.823303,854.456787 686.995178,842.002014 
	C711.481018,842.002014 735.779724,841.947998 760.076172,842.156555 
	C761.332031,842.167358 763.184937,844.199585 763.715881,845.668152 
	C767.710266,856.715149 771.442505,867.856934 775.251038,878.952637 
	C789.665833,878.952637 803.893555,878.952637 818.638062,878.952637 
	C817.825256,876.692566 817.191833,874.836243 816.493896,873.004395 
	C801.908264,834.720398 787.309998,796.441284 772.725891,758.156799 
	C764.106567,735.530396 755.552246,712.878967 746.816589,690.297668 
	C746.098206,688.440796 744.248047,685.673645 742.858826,685.634521 
	C730.068787,685.274048 717.264404,685.422058 704.484070,685.422058 
	C691.699585,719.845947 679.058411,753.884033 666.106323,788.639343 
M482.501740,879.242126 
	C520.596924,879.242126 558.692139,879.242126 596.889893,879.242126 
	C596.889893,867.420959 596.889893,856.153625 596.889893,844.362061 
	C567.124878,844.362061 537.556274,844.362061 507.901184,844.362061 
	C507.901184,828.773621 507.901184,813.712585 507.901184,798.128052 
	C533.763916,798.128052 559.315247,798.128052 584.881714,798.128052 
	C584.881714,786.503174 584.881714,775.405945 584.881714,763.855103 
	C559.097534,763.855103 533.518616,763.855103 507.895538,763.855103 
	C507.895538,749.017578 507.895538,734.638062 507.895538,719.823120 
	C537.781677,719.823120 567.358765,719.823120 596.739746,719.823120 
	C596.739746,708.150513 596.739746,696.919556 596.739746,685.687744 
	C553.621155,685.687744 510.855042,685.687744 468.137085,685.687744 
	C468.137085,750.349976 468.137085,814.739685 468.137085,879.242126 
	C472.844849,879.242126 477.174042,879.242126 482.501740,879.242126 
M137.795837,842.880249 
	C127.338470,839.393188 116.881111,835.906128 106.259521,832.364258 
	C102.326927,842.941711 98.301216,853.769653 94.198952,864.803467 
	C95.688629,865.729309 96.889481,866.583191 98.181885,867.263000 
	C125.133614,881.440186 153.728088,886.264771 183.633331,880.779968 
	C202.736450,877.276367 219.296509,868.679688 229.136032,850.828979 
	C240.827820,829.617859 243.128342,793.623108 208.230133,776.987122 
	C198.530960,772.363525 188.291687,768.875977 178.315552,764.829346 
	C168.195618,760.724304 157.891083,756.997681 148.058212,752.289124 
	C141.706528,749.247559 138.072998,743.575989 138.656754,736.022156 
	C139.266876,728.127502 143.219971,722.137817 150.617218,719.760803 
	C156.811661,717.770264 163.571457,716.450623 170.037476,716.608948 
	C185.931580,716.998108 200.589020,722.069946 214.126877,731.393494 
	C219.820877,721.207581 225.375153,711.271729 231.043930,701.130981 
	C230.000702,700.319946 229.170700,699.518250 228.204651,698.946350 
	C199.125504,681.733154 168.164734,676.917603 135.755920,686.748535 
	C113.735214,693.428284 99.717758,708.355652 97.041206,731.952271 
	C94.216576,756.854370 104.683327,774.989990 127.018326,785.873901 
	C136.827576,790.653931 147.311020,794.045227 157.467224,798.119751 
	C166.370529,801.691711 175.421661,804.964966 184.068268,809.082397 
	C189.769516,811.797424 193.955887,816.331604 194.020752,823.437012 
	C194.105560,832.729370 189.132294,839.536194 178.993301,842.704956 
	C165.622223,846.883789 152.106277,845.886292 137.795837,842.880249 
M311.483704,720.244751 
	C315.585144,720.244751 319.686554,720.244751 324.198883,720.244751 
	C324.198883,773.635071 324.198883,826.388184 324.198883,879.075378 
	C337.769653,879.075378 350.915985,879.075378 364.601074,879.075378 
	C364.601074,826.174255 364.601074,773.438843 364.601074,720.193848 
	C384.357574,720.193848 403.581390,720.193848 422.889343,720.193848 
	C422.889343,708.413330 422.889343,697.147156 422.889343,685.647461 
	C370.601440,685.647461 318.517975,685.647461 266.271790,685.647461 
	C266.271790,697.248352 266.271790,708.644714 266.271790,720.244751 
	C281.194611,720.244751 295.841278,720.244751 311.483704,720.244751 
M649.938721,258.510712 
	C666.858948,280.664093 689.080200,290.082550 716.496948,284.497742 
	C750.904663,277.488922 771.772705,243.818069 767.385620,211.667160 
	C762.338257,174.677795 726.074829,148.379700 689.973511,156.457870 
	C643.771057,166.796310 623.330017,218.101425 649.938721,258.510712 
M571.688538,430.203125 
	C595.427551,412.216095 601.208252,379.316437 585.097534,354.479980 
	C568.986450,329.642883 537.645569,325.274078 520.733765,333.879272 
	C531.630737,338.323364 542.423218,342.587189 553.104492,347.113342 
	C568.938721,353.823059 578.441528,369.146698 577.951782,386.787079 
	C577.499878,403.062836 566.310364,418.279327 550.712036,423.932678 
	C539.588013,427.964478 528.924561,426.517548 518.346313,421.765869 
	C509.071838,417.599854 499.632385,413.801086 489.635956,409.573700 
	C502.383606,437.880096 541.408386,451.795532 571.688538,430.203125 
M1132.014038,688.449951 
	C1131.477173,688.057373 1130.962280,687.629456 1130.400024,687.277466 
	C1120.672852,681.185303 1108.541504,681.456726 1099.452271,687.959412 
	C1090.713257,694.211487 1086.887939,706.140381 1089.863525,717.860413 
	C1092.490356,728.206116 1100.889648,735.348877 1112.285767,736.928284 
	C1122.868652,738.394958 1134.419067,732.192871 1139.092407,722.534302 
	C1144.688965,710.967834 1142.149414,697.817078 1132.014038,688.449951 
z"/>
<path fill="#ffffff" opacity="1.000000" stroke="none" 
	d="
M531.375977,41.289246 
	C564.487976,29.557945 598.299744,24.831100 632.855103,27.113831 
	C694.062561,31.157206 747.596375,53.906044 792.666870,95.624161 
	C834.478027,134.325439 861.606323,181.807236 871.534302,237.873367 
	C887.097046,325.761108 864.868164,403.460419 803.718262,468.978241 
	C767.297302,508.000885 722.386597,533.271545 669.988281,543.437134 
	C583.812561,560.155701 507.469421,538.932251 442.280548,479.985870 
	C407.883301,448.882568 384.453278,410.393890 370.338226,366.240570 
	C369.652161,364.094482 369.158539,361.886871 368.300415,358.681122 
	C378.714447,363.015137 388.145630,366.938080 397.575226,370.864899 
	C419.328094,379.923645 441.066071,389.018494 462.848541,398.005585 
	C465.935760,399.279297 467.754364,400.830475 468.740143,404.434509 
	C477.648712,437.005463 504.666656,459.050842 538.655884,459.531982 
	C577.309692,460.079102 606.181396,431.964020 611.932922,398.032745 
	C612.293457,395.905884 613.123535,393.645233 612.733154,391.642090 
	C611.198425,383.767212 615.654175,379.844910 621.433228,375.759979 
	C645.754150,358.568817 669.985718,341.237061 693.828430,323.393463 
	C699.718445,318.985474 705.915649,318.580658 712.406982,318.032135 
	C756.946411,314.268524 794.434021,277.324310 800.161194,233.312057 
	C806.594727,183.871765 774.394592,133.984818 721.734375,123.449341 
	C674.996582,114.098724 628.435242,139.888596 611.163635,185.707748 
	C607.214111,196.185242 605.105408,207.067764 605.001099,218.332138 
	C604.982605,220.324371 604.260925,222.599121 603.137817,224.249069 
	C583.856689,252.574036 564.499390,280.847687 544.988037,309.014252 
	C543.912842,310.566345 541.351685,311.944550 539.477051,311.951233 
	C525.273560,312.001740 512.368713,316.136658 500.208984,323.244324 
	C498.690826,324.131714 496.083649,324.385132 494.482330,323.721985 
	C450.335083,305.438599 406.285858,286.918060 362.109344,268.706329 
	C357.642517,266.864868 358.750031,263.883575 359.068359,261.049561 
	C362.316559,232.129715 369.508301,204.234589 382.053314,177.921356 
	C413.293915,112.393990 462.786621,66.664299 531.375977,41.289246 
z"/>
<path fill="#ffffff" opacity="1.000000" stroke="none" 
	d="
M923.350952,739.589600 
	C936.504211,768.064209 949.470459,796.210022 962.856201,825.266602 
	C965.755920,818.858521 968.346130,813.208496 970.876160,807.531616 
	C988.301941,768.431213 1005.754761,729.342712 1023.067139,690.192078 
	C1024.694824,686.511475 1026.752930,685.182739 1030.844849,685.307190 
	C1041.647095,685.635620 1052.465942,685.418335 1063.639404,685.418335 
	C1063.639404,750.015137 1063.639404,814.367310 1063.639404,878.980225 
	C1051.111572,878.980225 1038.536377,878.980225 1025.522705,878.980225 
	C1025.522705,840.330872 1025.522705,801.750000 1025.522705,763.169067 
	C1025.127563,763.051880 1024.732544,762.934631 1024.337402,762.817444 
	C1007.190369,799.853516 990.043274,836.889526 972.860718,874.002075 
	C966.027588,874.002075 959.360352,874.223511 952.728210,873.838928 
	C951.163086,873.748230 949.033142,871.933167 948.315369,870.379089 
	C932.521362,836.183899 916.891663,801.912781 901.220886,767.660645 
	C900.579895,766.259583 899.845520,764.901245 898.224976,763.784790 
	C898.224976,802.131714 898.224976,840.478638 898.224976,879.031128 
	C885.357971,879.031128 872.927856,879.031128 860.203247,879.031128 
	C860.203247,814.644104 860.203247,750.265442 860.203247,685.426697 
	C872.437683,685.426697 884.564758,685.362183 896.688110,685.544861 
	C897.694641,685.559998 899.082642,687.056091 899.608032,688.183411 
	C907.527588,705.177673 915.332214,722.225525 923.350952,739.589600 
z"/>
<path fill="#ffffff" opacity="1.000000" stroke="none" 
	d="
M666.261780,788.280762 
	C679.058411,753.884033 691.699585,719.845947 704.484070,685.422058 
	C717.264404,685.422058 730.068787,685.274048 742.858826,685.634521 
	C744.248047,685.673645 746.098206,688.440796 746.816589,690.297668 
	C755.552246,712.878967 764.106567,735.530396 772.725891,758.156799 
	C787.309998,796.441284 801.908264,834.720398 816.493896,873.004395 
	C817.191833,874.836243 817.825256,876.692566 818.638062,878.952637 
	C803.893555,878.952637 789.665833,878.952637 775.251038,878.952637 
	C771.442505,867.856934 767.710266,856.715149 763.715881,845.668152 
	C763.184937,844.199585 761.332031,842.167358 760.076172,842.156555 
	C735.779724,841.947998 711.481018,842.002014 686.995178,842.002014 
	C682.823303,854.456787 678.721985,866.700989 674.607056,878.985718 
	C660.637512,878.985718 646.898743,878.985718 632.676575,878.985718 
	C643.913391,848.617310 655.009827,818.628296 666.261780,788.280762 
M709.789795,773.209412 
	C705.747498,784.916931 701.705200,796.624451 697.532654,808.709229 
	C715.369385,808.709229 732.576294,808.709229 750.379700,808.709229 
	C741.648438,783.191528 733.025513,757.990417 723.938049,731.431763 
	C718.949646,746.143311 714.487976,759.301270 709.789795,773.209412 
z"/>
<path fill="#ffffff" opacity="1.000000" stroke="none" 
	d="
M482.002502,879.242126 
	C477.174042,879.242126 472.844849,879.242126 468.137085,879.242126 
	C468.137085,814.739685 468.137085,750.349976 468.137085,685.687744 
	C510.855042,685.687744 553.621155,685.687744 596.739746,685.687744 
	C596.739746,696.919556 596.739746,708.150513 596.739746,719.823120 
	C567.358765,719.823120 537.781677,719.823120 507.895538,719.823120 
	C507.895538,734.638062 507.895538,749.017578 507.895538,763.855103 
	C533.518616,763.855103 559.097534,763.855103 584.881714,763.855103 
	C584.881714,775.405945 584.881714,786.503174 584.881714,798.128052 
	C559.315247,798.128052 533.763916,798.128052 507.901184,798.128052 
	C507.901184,813.712585 507.901184,828.773621 507.901184,844.362061 
	C537.556274,844.362061 567.124878,844.362061 596.889893,844.362061 
	C596.889893,856.153625 596.889893,867.420959 596.889893,879.242126 
	C558.692139,879.242126 520.596924,879.242126 482.002502,879.242126 
z"/>
<path fill="#ffffff" opacity="1.000000" stroke="none" 
	d="
M138.212738,842.931396 
	C152.106277,845.886292 165.622223,846.883789 178.993301,842.704956 
	C189.132294,839.536194 194.105560,832.729370 194.020752,823.437012 
	C193.955887,816.331604 189.769516,811.797424 184.068268,809.082397 
	C175.421661,804.964966 166.370529,801.691711 157.467224,798.119751 
	C147.311020,794.045227 136.827576,790.653931 127.018326,785.873901 
	C104.683327,774.989990 94.216576,756.854370 97.041206,731.952271 
	C99.717758,708.355652 113.735214,693.428284 135.755920,686.748535 
	C168.164734,676.917603 199.125504,681.733154 228.204651,698.946350 
	C229.170700,699.518250 230.000702,700.319946 231.043930,701.130981 
	C225.375153,711.271729 219.820877,721.207581 214.126877,731.393494 
	C200.589020,722.069946 185.931580,716.998108 170.037476,716.608948 
	C163.571457,716.450623 156.811661,717.770264 150.617218,719.760803 
	C143.219971,722.137817 139.266876,728.127502 138.656754,736.022156 
	C138.072998,743.575989 141.706528,749.247559 148.058212,752.289124 
	C157.891083,756.997681 168.195618,760.724304 178.315552,764.829346 
	C188.291687,768.875977 198.530960,772.363525 208.230133,776.987122 
	C243.128342,793.623108 240.827820,829.617859 229.136032,850.828979 
	C219.296509,868.679688 202.736450,877.276367 183.633331,880.779968 
	C153.728088,886.264771 125.133614,881.440186 98.181885,867.263000 
	C96.889481,866.583191 95.688629,865.729309 94.198952,864.803467 
	C98.301216,853.769653 102.326927,842.941711 106.259521,832.364258 
	C116.881111,835.906128 127.338470,839.393188 138.212738,842.931396 
z"/>
<path fill="#ffffff" opacity="1.000000" stroke="none" 
	d="
M310.985840,720.244751 
	C295.841278,720.244751 281.194611,720.244751 266.271790,720.244751 
	C266.271790,708.644714 266.271790,697.248352 266.271790,685.647461 
	C318.517975,685.647461 370.601440,685.647461 422.889343,685.647461 
	C422.889343,697.147156 422.889343,708.413330 422.889343,720.193848 
	C403.581390,720.193848 384.357574,720.193848 364.601074,720.193848 
	C364.601074,773.438843 364.601074,826.174255 364.601074,879.075378 
	C350.915985,879.075378 337.769653,879.075378 324.198883,879.075378 
	C324.198883,826.388184 324.198883,773.635071 324.198883,720.244751 
	C319.686554,720.244751 315.585144,720.244751 310.985840,720.244751 
z"/>
<path fill="#ffffff" opacity="1.000000" stroke="none" 
	d="
M649.748047,258.204529 
	C623.330017,218.101425 643.771057,166.796310 689.973511,156.457870 
	C726.074829,148.379700 762.338257,174.677795 767.385620,211.667160 
	C771.772705,243.818069 750.904663,277.488922 716.496948,284.497742 
	C689.080200,290.082550 666.858948,280.664093 649.748047,258.204529 
M657.448975,202.120483 
	C653.924866,211.519302 653.109436,221.100235 655.073486,230.991394 
	C659.914124,255.369156 686.060608,273.709991 710.101379,269.647034 
	C737.105835,265.083252 754.897949,240.987503 751.603638,214.594299 
	C748.695679,191.297012 731.816101,174.769485 708.571472,171.324051 
	C688.054321,168.282883 667.060242,180.732300 657.448975,202.120483 
z"/>
<path fill="#ffffff" opacity="1.000000" stroke="none" 
	d="
M571.414429,430.438782 
	C541.408386,451.795532 502.383606,437.880096 489.635956,409.573700 
	C499.632385,413.801086 509.071838,417.599854 518.346313,421.765869 
	C528.924561,426.517548 539.588013,427.964478 550.712036,423.932678 
	C566.310364,418.279327 577.499878,403.062836 577.951782,386.787079 
	C578.441528,369.146698 568.938721,353.823059 553.104492,347.113342 
	C542.423218,342.587189 531.630737,338.323364 520.733765,333.879272 
	C537.645569,325.274078 568.986450,329.642883 585.097534,354.479980 
	C601.208252,379.316437 595.427551,412.216095 571.414429,430.438782 
z"/>
<path fill="#ffffff" opacity="1.000000" stroke="none" 
	d="
M1132.303711,688.664490 
	C1142.149414,697.817078 1144.688965,710.967834 1139.092407,722.534302 
	C1134.419067,732.192871 1122.868652,738.394958 1112.285767,736.928284 
	C1100.889648,735.348877 1092.490356,728.206116 1089.863525,717.860413 
	C1086.887939,706.140381 1090.713257,694.211487 1099.452271,687.959412 
	C1108.541504,681.456726 1120.672852,681.185303 1130.400024,687.277466 
	C1130.962280,687.629456 1131.477173,688.057373 1132.303711,688.664490 
M1133.681030,721.970703 
	C1138.593750,712.509583 1138.250854,703.333435 1131.582275,694.895142 
	C1126.229736,688.122314 1116.222290,685.760864 1107.519653,688.672729 
	C1098.358276,691.738098 1093.048584,699.410400 1093.008667,709.640076 
	C1092.966919,720.361694 1098.063232,728.001160 1107.386597,731.192261 
	C1117.179077,734.543884 1126.607666,731.408264 1133.681030,721.970703 
z"/>
<path fill="#FBFBFB" opacity="1.000000" stroke="none" 
	d="
M709.908081,772.834351 
	C714.487976,759.301270 718.949646,746.143311 723.938049,731.431763 
	C733.025513,757.990417 741.648438,783.191528 750.379700,808.709229 
	C732.576294,808.709229 715.369385,808.709229 697.532654,808.709229 
	C701.705200,796.624451 705.747498,784.916931 709.908081,772.834351 
z"/>
<path fill="#FDFDFD" opacity="1.000000" stroke="none" 
	d="
M657.623901,201.776306 
	C667.060242,180.732300 688.054321,168.282883 708.571472,171.324051 
	C731.816101,174.769485 748.695679,191.297012 751.603638,214.594299 
	C754.897949,240.987503 737.105835,265.083252 710.101379,269.647034 
	C686.060608,273.709991 659.914124,255.369156 655.073486,230.991394 
	C653.109436,221.100235 653.924866,211.519302 657.623901,201.776306 
z"/>
<path fill="#F8F8F8" opacity="1.000000" stroke="none" 
	d="
M1133.471436,722.278809 
	C1126.607666,731.408264 1117.179077,734.543884 1107.386597,731.192261 
	C1098.063232,728.001160 1092.966919,720.361694 1093.008667,709.640076 
	C1093.048584,699.410400 1098.358276,691.738098 1107.519653,688.672729 
	C1116.222290,685.760864 1126.229736,688.122314 1131.582275,694.895142 
	C1138.250854,703.333435 1138.593750,712.509583 1133.471436,722.278809 
M1106.381592,708.505920 
	C1106.382568,712.170471 1106.181763,715.853088 1106.508301,719.488403 
	C1106.605835,720.574219 1108.179077,721.527527 1109.076294,722.541504 
	C1109.523804,722.215332 1109.971313,721.889099 1110.418823,721.562927 
	C1110.418823,718.463989 1110.418823,715.365112 1110.418823,712.625732 
	C1116.469116,710.017822 1117.133667,714.816833 1118.675049,718.050964 
	C1120.022461,720.878174 1121.126343,723.563110 1125.370239,721.583801 
	C1123.599976,718.082764 1121.898438,714.717529 1120.145142,711.249756 
	C1120.900146,710.438293 1121.962769,709.816284 1122.165771,708.984436 
	C1122.880371,706.057434 1124.432495,702.608887 1123.486084,700.223389 
	C1122.673218,698.174622 1119.018799,696.684326 1116.363892,696.083740 
	C1113.270508,695.384155 1109.897461,695.920532 1106.381714,695.920532 
	C1106.381714,700.232727 1106.381714,703.876465 1106.381592,708.505920 
z"/>
<path fill="#ffffff" opacity="1.000000" stroke="none" 
	d="
M1106.381592,708.013062 
	C1106.381714,703.876465 1106.381714,700.232727 1106.381714,695.920532 
	C1109.897461,695.920532 1113.270508,695.384155 1116.363892,696.083740 
	C1119.018799,696.684326 1122.673218,698.174622 1123.486084,700.223389 
	C1124.432495,702.608887 1122.880371,706.057434 1122.165771,708.984436 
	C1121.962769,709.816284 1120.900146,710.438293 1120.145142,711.249756 
	C1121.898438,714.717529 1123.599976,718.082764 1125.370239,721.583801 
	C1121.126343,723.563110 1120.022461,720.878174 1118.675049,718.050964 
	C1117.133667,714.816833 1116.469116,710.017822 1110.418823,712.625732 
	C1110.418823,715.365112 1110.418823,718.463989 1110.418823,721.562927 
	C1109.971313,721.889099 1109.523804,722.215332 1109.076294,722.541504 
	C1108.179077,721.527527 1106.605835,720.574219 1106.508301,719.488403 
	C1106.181763,715.853088 1106.382568,712.170471 1106.381592,708.013062 
M1119.775513,701.960938 
	C1117.033081,701.111389 1114.290771,700.261780 1111.297852,699.334595 
	C1111.297852,703.119202 1111.297852,705.675354 1111.297852,708.213562 
	C1118.737915,708.549255 1119.623779,707.978821 1119.775513,701.960938 
z"/>
<path fill="#F8F8F8" opacity="1.000000" stroke="none" 
	d="
M1119.906006,702.368896 
	C1119.623779,707.978821 1118.737915,708.549255 1111.297852,708.213562 
	C1111.297852,705.675354 1111.297852,703.119202 1111.297852,699.334595 
	C1114.290771,700.261780 1117.033081,701.111389 1119.906006,702.368896 
z"/>
</svg>