<svg width="100%" height="100%" id="svg" viewBox="0 0 1440 590" xmlns="http://www.w3.org/2000/svg" class="transition duration-300 ease-in-out delay-150">
    <path d="
        M 0,600 L 0,337 C 60.05897435897435,317.4653846153846 120.1179487179487,297.9307692307692 202,282 C 283.8820512820513,266.0692307692308 387.58717948717947,253.74230769230766 478,234 C 568.4128205128205,214.25769230769234 645.5333333333333,187.09999999999997 720,155 C 794.4666666666667,122.90000000000002 866.2794871794872,85.8576923076923 954,69 C 1041.7205128205128,52.14230769230769 1145.348717948718,55.46923076923077 1229,41 C 1312.651282051282,26.53076923076923 1376.3256410256408,-5.734615384615385 1440,-38 L 1440,600 L 0,600 Z" stroke="none" stroke-width="0" fill="#171717" fill-opacity="0.4" class="transition-all duration-300 ease-in-out delay-150 path-0"></path>
    <path d="
        M 0,600 L 0,487 C 64.56410256410257,477.50128205128203 129.12820512820514,468.00256410256407 202,446 C 274.87179487179486,423.99743589743593 356.0512820512821,389.49102564102566 436,368 C 515.9487179487179,346.50897435897434 594.6666666666665,338.03333333333336 677,337 C 759.3333333333335,335.96666666666664 845.2820512820515,342.375641025641 938,307 C 1030.7179487179485,271.624358974359 1130.2051282051282,194.46410256410257 1215,155 C 1299.7948717948718,115.53589743589743 1369.897435897436,113.76794871794871 1440,112 L 1440,600 L 0,600 Z" stroke="none" stroke-width="0" fill="#171717" fill-opacity="0.53" class="transition-all duration-300 ease-in-out delay-150 path-1"></path>
    <path d="
        M 0,600 L 0,637 C 66.62564102564102,616.4782051282051 133.25128205128203,595.9564102564102 220,592 C 306.74871794871797,588.0435897435898 413.6205128205128,600.6525641025642 493,592 C 572.3794871794872,583.3474358974358 624.2666666666667,553.4333333333333 714,513 C 803.7333333333333,472.5666666666667 931.3128205128205,421.61410256410255 1004,392 C 1076.6871794871795,362.38589743589745 1094.4820512820513,354.1102564102564 1158,336 C 1221.5179487179487,317.8897435897436 1330.7589743589742,289.9448717948718 1440,262 L 1440,600 L 0,600 Z" stroke="none" stroke-width="0" fill="#171717" fill-opacity="1" class="transition-all duration-300 ease-in-out delay-150 path-2"></path>
</svg>